<svg xmlns="http://www.w3.org/2000/svg" width="22" height="22" viewBox="0 0 22 22">
  <g id="icon_call_22" transform="translate(0.234 0.529)">
    <rect id="사각형_2327" data-name="사각형 2327" width="22" height="22" transform="translate(-0.234 -0.529)" fill="none"/>
    <path id="패스_13432" data-name="패스 13432" d="M81.306,31.649h-.86a4.779,4.779,0,0,0-.4-1.109,5.471,5.471,0,0,0-1.392-1.726,7.345,7.345,0,0,0-9.09,0A5.471,5.471,0,0,0,68.17,30.54a4.78,4.78,0,0,0-.4,1.109h-.86a1.8,1.8,0,0,0-1.8,1.8v3.318a1.8,1.8,0,0,0,1.8,1.8h1.01a.263.263,0,0,0,.263-.263V32.671c0-2.7,2.658-4.9,5.925-4.9s5.925,2.2,5.925,4.9v4.874a4.137,4.137,0,0,1-.336,1.63,4.72,4.72,0,0,1-.937,1.405,6.161,6.161,0,0,1-3.1,1.7,1.613,1.613,0,1,0,.057.527,6.7,6.7,0,0,0,3.423-1.862,5.244,5.244,0,0,0,1.04-1.562,4.74,4.74,0,0,0,.264-.815h.861a1.8,1.8,0,0,0,1.8-1.8V33.449A1.8,1.8,0,0,0,81.306,31.649Zm-13.651,6.39h-.747a1.274,1.274,0,0,1-1.273-1.273V33.449a1.274,1.274,0,0,1,1.273-1.273h.747v5.863ZM74.107,43.8a1.087,1.087,0,1,1,1.087-1.087A1.088,1.088,0,0,1,74.107,43.8Zm8.471-7.033a1.274,1.274,0,0,1-1.273,1.273h-.747V32.176h.747a1.274,1.274,0,0,1,1.273,1.273Z" transform="translate(-62.751 -24.824)" fill="#fff" stroke="#111" stroke-width="1"/>
  </g>
</svg>
